<mxfile host="app.diagrams.net" modified="2022-12-06T15:01:48.473Z" agent="5.0 (Windows NT 10.0; Win64; x64) AppleWebKit/537.36 (KHTML, like Gecko) Chrome/108.0.0.0 Safari/537.36" version="20.6.0" etag="A3s2dOITY2lxXr8FbvsM" type="github">
  <diagram id="BINwC6CMDBfWokmIm_tE" name="第 1 页">
    <mxGraphModel dx="767" dy="1253" grid="1" gridSize="10" guides="1" tooltips="1" connect="1" arrows="1" fold="1" page="1" pageScale="1" pageWidth="827" pageHeight="1169" math="0" shadow="0">
      <root>
        <mxCell id="0" />
        <mxCell id="1" parent="0" />
        <mxCell id="eGLmCTw4VA7f1JJkIwNe-4" value="" style="edgeStyle=orthogonalEdgeStyle;rounded=0;orthogonalLoop=1;jettySize=auto;html=1;" edge="1" parent="1" source="eGLmCTw4VA7f1JJkIwNe-2" target="eGLmCTw4VA7f1JJkIwNe-3">
          <mxGeometry relative="1" as="geometry" />
        </mxCell>
        <mxCell id="eGLmCTw4VA7f1JJkIwNe-2" value="开始" style="strokeWidth=2;html=1;shape=mxgraph.flowchart.start_1;whiteSpace=wrap;" vertex="1" parent="1">
          <mxGeometry x="185" y="30" width="100" height="60" as="geometry" />
        </mxCell>
        <mxCell id="eGLmCTw4VA7f1JJkIwNe-6" value="" style="edgeStyle=orthogonalEdgeStyle;rounded=0;orthogonalLoop=1;jettySize=auto;html=1;" edge="1" parent="1" source="eGLmCTw4VA7f1JJkIwNe-3" target="eGLmCTw4VA7f1JJkIwNe-5">
          <mxGeometry relative="1" as="geometry" />
        </mxCell>
        <mxCell id="eGLmCTw4VA7f1JJkIwNe-3" value="定义全局变量success&lt;br&gt;表示所处状态，若值为0，则目前未进行任何操作；若值为1，则拆弹成功，若值为2，则拆弹失败" style="whiteSpace=wrap;html=1;strokeWidth=2;" vertex="1" parent="1">
          <mxGeometry x="160" y="110" width="150" height="100" as="geometry" />
        </mxCell>
        <mxCell id="eGLmCTw4VA7f1JJkIwNe-8" value="" style="edgeStyle=orthogonalEdgeStyle;rounded=0;orthogonalLoop=1;jettySize=auto;html=1;" edge="1" parent="1" source="eGLmCTw4VA7f1JJkIwNe-5" target="eGLmCTw4VA7f1JJkIwNe-7">
          <mxGeometry relative="1" as="geometry" />
        </mxCell>
        <mxCell id="eGLmCTw4VA7f1JJkIwNe-5" value="定义DelayUS函数&lt;br&gt;定义LED_Display函数&lt;br&gt;不再赘述" style="whiteSpace=wrap;html=1;strokeWidth=2;" vertex="1" parent="1">
          <mxGeometry x="165" y="230" width="140" height="60" as="geometry" />
        </mxCell>
        <mxCell id="eGLmCTw4VA7f1JJkIwNe-10" value="" style="edgeStyle=orthogonalEdgeStyle;rounded=0;orthogonalLoop=1;jettySize=auto;html=1;" edge="1" parent="1" source="eGLmCTw4VA7f1JJkIwNe-7" target="eGLmCTw4VA7f1JJkIwNe-9">
          <mxGeometry relative="1" as="geometry" />
        </mxCell>
        <mxCell id="eGLmCTw4VA7f1JJkIwNe-7" value="进入main函数" style="whiteSpace=wrap;html=1;strokeWidth=2;" vertex="1" parent="1">
          <mxGeometry x="175" y="310" width="120" height="40" as="geometry" />
        </mxCell>
        <mxCell id="eGLmCTw4VA7f1JJkIwNe-12" value="" style="edgeStyle=orthogonalEdgeStyle;rounded=0;orthogonalLoop=1;jettySize=auto;html=1;" edge="1" parent="1" source="eGLmCTw4VA7f1JJkIwNe-9" target="eGLmCTw4VA7f1JJkIwNe-11">
          <mxGeometry relative="1" as="geometry" />
        </mxCell>
        <mxCell id="eGLmCTw4VA7f1JJkIwNe-9" value="配置TMR1&lt;br&gt;分频比1:2&lt;br&gt;初值高八位0xff&lt;br&gt;第八位207&lt;br&gt;TMR1中断标志位置0&lt;br&gt;中断使能位置1&lt;br&gt;全局中断使能" style="whiteSpace=wrap;html=1;strokeWidth=2;" vertex="1" parent="1">
          <mxGeometry x="175" y="370" width="120" height="110" as="geometry" />
        </mxCell>
        <mxCell id="eGLmCTw4VA7f1JJkIwNe-14" value="" style="edgeStyle=orthogonalEdgeStyle;rounded=0;orthogonalLoop=1;jettySize=auto;html=1;" edge="1" parent="1" source="eGLmCTw4VA7f1JJkIwNe-11" target="eGLmCTw4VA7f1JJkIwNe-13">
          <mxGeometry relative="1" as="geometry" />
        </mxCell>
        <mxCell id="eGLmCTw4VA7f1JJkIwNe-11" value="RB0，1，2，3设置为输入态&lt;br&gt;设置下降沿触发&lt;br&gt;INT标志位置0&lt;br&gt;INT中断使能" style="whiteSpace=wrap;html=1;strokeWidth=2;" vertex="1" parent="1">
          <mxGeometry x="175" y="500" width="120" height="80" as="geometry" />
        </mxCell>
        <mxCell id="eGLmCTw4VA7f1JJkIwNe-18" value="" style="edgeStyle=orthogonalEdgeStyle;rounded=0;orthogonalLoop=1;jettySize=auto;html=1;" edge="1" parent="1" source="eGLmCTw4VA7f1JJkIwNe-13" target="eGLmCTw4VA7f1JJkIwNe-17">
          <mxGeometry relative="1" as="geometry" />
        </mxCell>
        <mxCell id="eGLmCTw4VA7f1JJkIwNe-13" value="Time_Value为10&lt;br&gt;开始从10倒计时" style="whiteSpace=wrap;html=1;strokeWidth=2;" vertex="1" parent="1">
          <mxGeometry x="175" y="600" width="120" height="50" as="geometry" />
        </mxCell>
        <mxCell id="eGLmCTw4VA7f1JJkIwNe-23" style="edgeStyle=orthogonalEdgeStyle;rounded=0;orthogonalLoop=1;jettySize=auto;html=1;entryX=0.5;entryY=0;entryDx=0;entryDy=0;" edge="1" parent="1" source="eGLmCTw4VA7f1JJkIwNe-17" target="eGLmCTw4VA7f1JJkIwNe-21">
          <mxGeometry relative="1" as="geometry">
            <Array as="points">
              <mxPoint x="305" y="695" />
            </Array>
          </mxGeometry>
        </mxCell>
        <mxCell id="eGLmCTw4VA7f1JJkIwNe-17" value="while（1）" style="rhombus;whiteSpace=wrap;html=1;strokeWidth=2;" vertex="1" parent="1">
          <mxGeometry x="195" y="670" width="80" height="50" as="geometry" />
        </mxCell>
        <mxCell id="eGLmCTw4VA7f1JJkIwNe-19" value="是" style="text;html=1;align=center;verticalAlign=middle;resizable=0;points=[];autosize=1;strokeColor=none;fillColor=none;" vertex="1" parent="1">
          <mxGeometry x="285" y="670" width="40" height="30" as="geometry" />
        </mxCell>
        <mxCell id="eGLmCTw4VA7f1JJkIwNe-25" value="" style="edgeStyle=orthogonalEdgeStyle;rounded=0;orthogonalLoop=1;jettySize=auto;html=1;" edge="1" parent="1" source="eGLmCTw4VA7f1JJkIwNe-21" target="eGLmCTw4VA7f1JJkIwNe-24">
          <mxGeometry relative="1" as="geometry" />
        </mxCell>
        <mxCell id="eGLmCTw4VA7f1JJkIwNe-21" value="将Time_Value中的值显示在LED屏幕上" style="whiteSpace=wrap;html=1;strokeWidth=2;" vertex="1" parent="1">
          <mxGeometry x="245" y="730" width="120" height="50" as="geometry" />
        </mxCell>
        <mxCell id="eGLmCTw4VA7f1JJkIwNe-27" value="" style="edgeStyle=orthogonalEdgeStyle;rounded=0;orthogonalLoop=1;jettySize=auto;html=1;" edge="1" parent="1" source="eGLmCTw4VA7f1JJkIwNe-24" target="eGLmCTw4VA7f1JJkIwNe-26">
          <mxGeometry relative="1" as="geometry" />
        </mxCell>
        <mxCell id="eGLmCTw4VA7f1JJkIwNe-30" style="edgeStyle=orthogonalEdgeStyle;rounded=0;orthogonalLoop=1;jettySize=auto;html=1;entryX=0;entryY=0.5;entryDx=0;entryDy=0;" edge="1" parent="1" source="eGLmCTw4VA7f1JJkIwNe-24" target="eGLmCTw4VA7f1JJkIwNe-17">
          <mxGeometry relative="1" as="geometry">
            <Array as="points">
              <mxPoint x="175" y="880" />
              <mxPoint x="175" y="695" />
            </Array>
          </mxGeometry>
        </mxCell>
        <mxCell id="eGLmCTw4VA7f1JJkIwNe-24" value="RB1，2，3中任意为0，并且不处于拆弹成功状态" style="rhombus;whiteSpace=wrap;html=1;strokeWidth=2;" vertex="1" parent="1">
          <mxGeometry x="250" y="810" width="110" height="80" as="geometry" />
        </mxCell>
        <mxCell id="eGLmCTw4VA7f1JJkIwNe-33" style="edgeStyle=orthogonalEdgeStyle;rounded=0;orthogonalLoop=1;jettySize=auto;html=1;entryX=0;entryY=0.5;entryDx=0;entryDy=0;" edge="1" parent="1" source="eGLmCTw4VA7f1JJkIwNe-26" target="eGLmCTw4VA7f1JJkIwNe-17">
          <mxGeometry relative="1" as="geometry">
            <Array as="points">
              <mxPoint x="305" y="970" />
              <mxPoint x="175" y="970" />
              <mxPoint x="175" y="695" />
            </Array>
          </mxGeometry>
        </mxCell>
        <mxCell id="eGLmCTw4VA7f1JJkIwNe-26" value="success=2，拆弹失败" style="whiteSpace=wrap;html=1;strokeWidth=2;" vertex="1" parent="1">
          <mxGeometry x="240" y="910" width="130" height="40" as="geometry" />
        </mxCell>
        <mxCell id="eGLmCTw4VA7f1JJkIwNe-28" value="是" style="text;html=1;align=center;verticalAlign=middle;resizable=0;points=[];autosize=1;strokeColor=none;fillColor=none;" vertex="1" parent="1">
          <mxGeometry x="315" y="875" width="40" height="30" as="geometry" />
        </mxCell>
        <mxCell id="eGLmCTw4VA7f1JJkIwNe-29" value="否" style="text;html=1;align=center;verticalAlign=middle;resizable=0;points=[];autosize=1;strokeColor=none;fillColor=none;" vertex="1" parent="1">
          <mxGeometry x="225" y="810" width="40" height="30" as="geometry" />
        </mxCell>
        <mxCell id="eGLmCTw4VA7f1JJkIwNe-37" value="" style="edgeStyle=orthogonalEdgeStyle;rounded=0;orthogonalLoop=1;jettySize=auto;html=1;exitX=0.5;exitY=1;exitDx=0;exitDy=0;exitPerimeter=0;" edge="1" parent="1" source="eGLmCTw4VA7f1JJkIwNe-85" target="eGLmCTw4VA7f1JJkIwNe-36">
          <mxGeometry relative="1" as="geometry">
            <mxPoint x="450.0588235294117" y="90" as="sourcePoint" />
          </mxGeometry>
        </mxCell>
        <mxCell id="eGLmCTw4VA7f1JJkIwNe-40" value="" style="edgeStyle=orthogonalEdgeStyle;rounded=0;orthogonalLoop=1;jettySize=auto;html=1;" edge="1" parent="1" source="eGLmCTw4VA7f1JJkIwNe-36" target="eGLmCTw4VA7f1JJkIwNe-39">
          <mxGeometry relative="1" as="geometry" />
        </mxCell>
        <mxCell id="eGLmCTw4VA7f1JJkIwNe-36" value="关全局中断" style="whiteSpace=wrap;html=1;strokeWidth=2;" vertex="1" parent="1">
          <mxGeometry x="390" y="120" width="120" height="40" as="geometry" />
        </mxCell>
        <mxCell id="eGLmCTw4VA7f1JJkIwNe-38" value="是" style="text;html=1;align=center;verticalAlign=middle;resizable=0;points=[];autosize=1;strokeColor=none;fillColor=none;" vertex="1" parent="1">
          <mxGeometry x="455" y="90" width="40" height="30" as="geometry" />
        </mxCell>
        <mxCell id="eGLmCTw4VA7f1JJkIwNe-43" value="" style="edgeStyle=orthogonalEdgeStyle;rounded=0;orthogonalLoop=1;jettySize=auto;html=1;" edge="1" parent="1" target="eGLmCTw4VA7f1JJkIwNe-42">
          <mxGeometry relative="1" as="geometry">
            <mxPoint x="450" y="210" as="sourcePoint" />
          </mxGeometry>
        </mxCell>
        <mxCell id="eGLmCTw4VA7f1JJkIwNe-61" style="edgeStyle=orthogonalEdgeStyle;rounded=0;orthogonalLoop=1;jettySize=auto;html=1;entryX=0.5;entryY=0;entryDx=0;entryDy=0;" edge="1" parent="1" source="eGLmCTw4VA7f1JJkIwNe-39" target="eGLmCTw4VA7f1JJkIwNe-45">
          <mxGeometry relative="1" as="geometry">
            <Array as="points">
              <mxPoint x="540" y="200" />
              <mxPoint x="540" y="325" />
            </Array>
          </mxGeometry>
        </mxCell>
        <mxCell id="eGLmCTw4VA7f1JJkIwNe-39" value="倒计时结束或者拆弹失败" style="rhombus;whiteSpace=wrap;html=1;strokeWidth=2;" vertex="1" parent="1">
          <mxGeometry x="395" y="175" width="110" height="50" as="geometry" />
        </mxCell>
        <mxCell id="eGLmCTw4VA7f1JJkIwNe-41" value="是" style="text;html=1;align=center;verticalAlign=middle;resizable=0;points=[];autosize=1;strokeColor=none;fillColor=none;" vertex="1" parent="1">
          <mxGeometry x="450" y="215" width="40" height="30" as="geometry" />
        </mxCell>
        <mxCell id="eGLmCTw4VA7f1JJkIwNe-46" value="" style="edgeStyle=orthogonalEdgeStyle;rounded=0;orthogonalLoop=1;jettySize=auto;html=1;" edge="1" parent="1" source="eGLmCTw4VA7f1JJkIwNe-42" target="eGLmCTw4VA7f1JJkIwNe-45">
          <mxGeometry relative="1" as="geometry" />
        </mxCell>
        <mxCell id="eGLmCTw4VA7f1JJkIwNe-42" value="success=2，拆弹失败，RE0输出态，并且置0，开启蜂鸣器" style="whiteSpace=wrap;html=1;strokeWidth=2;" vertex="1" parent="1">
          <mxGeometry x="390" y="245" width="120" height="60" as="geometry" />
        </mxCell>
        <mxCell id="eGLmCTw4VA7f1JJkIwNe-44" value="否" style="text;html=1;align=center;verticalAlign=middle;resizable=0;points=[];autosize=1;strokeColor=none;fillColor=none;" vertex="1" parent="1">
          <mxGeometry x="505" y="165" width="40" height="30" as="geometry" />
        </mxCell>
        <mxCell id="eGLmCTw4VA7f1JJkIwNe-50" value="" style="edgeStyle=orthogonalEdgeStyle;rounded=0;orthogonalLoop=1;jettySize=auto;html=1;" edge="1" parent="1" target="eGLmCTw4VA7f1JJkIwNe-49">
          <mxGeometry relative="1" as="geometry">
            <mxPoint x="450" y="345" as="sourcePoint" />
          </mxGeometry>
        </mxCell>
        <mxCell id="eGLmCTw4VA7f1JJkIwNe-66" style="edgeStyle=orthogonalEdgeStyle;rounded=0;orthogonalLoop=1;jettySize=auto;html=1;entryX=0.5;entryY=0;entryDx=0;entryDy=0;" edge="1" parent="1" source="eGLmCTw4VA7f1JJkIwNe-45" target="eGLmCTw4VA7f1JJkIwNe-71">
          <mxGeometry relative="1" as="geometry">
            <mxPoint x="520" y="710" as="targetPoint" />
            <Array as="points">
              <mxPoint x="540" y="350" />
              <mxPoint x="540" y="760" />
            </Array>
          </mxGeometry>
        </mxCell>
        <mxCell id="eGLmCTw4VA7f1JJkIwNe-45" value="TMR1发生中断" style="rhombus;whiteSpace=wrap;html=1;strokeWidth=2;" vertex="1" parent="1">
          <mxGeometry x="405" y="325" width="90" height="50" as="geometry" />
        </mxCell>
        <mxCell id="eGLmCTw4VA7f1JJkIwNe-48" value="是" style="text;html=1;align=center;verticalAlign=middle;resizable=0;points=[];autosize=1;strokeColor=none;fillColor=none;" vertex="1" parent="1">
          <mxGeometry x="450" y="365" width="40" height="30" as="geometry" />
        </mxCell>
        <mxCell id="eGLmCTw4VA7f1JJkIwNe-52" value="" style="edgeStyle=orthogonalEdgeStyle;rounded=0;orthogonalLoop=1;jettySize=auto;html=1;" edge="1" parent="1" source="eGLmCTw4VA7f1JJkIwNe-49" target="eGLmCTw4VA7f1JJkIwNe-51">
          <mxGeometry relative="1" as="geometry" />
        </mxCell>
        <mxCell id="eGLmCTw4VA7f1JJkIwNe-49" value="中断标志位置0&lt;br&gt;count加一" style="whiteSpace=wrap;html=1;strokeWidth=2;" vertex="1" parent="1">
          <mxGeometry x="390" y="395" width="120" height="50" as="geometry" />
        </mxCell>
        <mxCell id="eGLmCTw4VA7f1JJkIwNe-55" value="" style="edgeStyle=orthogonalEdgeStyle;rounded=0;orthogonalLoop=1;jettySize=auto;html=1;" edge="1" parent="1" source="eGLmCTw4VA7f1JJkIwNe-51" target="eGLmCTw4VA7f1JJkIwNe-54">
          <mxGeometry relative="1" as="geometry" />
        </mxCell>
        <mxCell id="eGLmCTw4VA7f1JJkIwNe-68" style="edgeStyle=orthogonalEdgeStyle;rounded=0;orthogonalLoop=1;jettySize=auto;html=1;entryX=1;entryY=0.5;entryDx=0;entryDy=0;" edge="1" parent="1" source="eGLmCTw4VA7f1JJkIwNe-51" target="eGLmCTw4VA7f1JJkIwNe-63">
          <mxGeometry relative="1" as="geometry">
            <Array as="points">
              <mxPoint x="530" y="495" />
              <mxPoint x="530" y="715" />
            </Array>
          </mxGeometry>
        </mxCell>
        <mxCell id="eGLmCTw4VA7f1JJkIwNe-51" value="count&amp;gt;=10000" style="rhombus;whiteSpace=wrap;html=1;strokeWidth=2;" vertex="1" parent="1">
          <mxGeometry x="410" y="465" width="80" height="60" as="geometry" />
        </mxCell>
        <mxCell id="eGLmCTw4VA7f1JJkIwNe-53" value="是" style="text;html=1;align=center;verticalAlign=middle;resizable=0;points=[];autosize=1;strokeColor=none;fillColor=none;" vertex="1" parent="1">
          <mxGeometry x="450" y="505" width="40" height="30" as="geometry" />
        </mxCell>
        <mxCell id="eGLmCTw4VA7f1JJkIwNe-57" value="" style="edgeStyle=orthogonalEdgeStyle;rounded=0;orthogonalLoop=1;jettySize=auto;html=1;" edge="1" parent="1" source="eGLmCTw4VA7f1JJkIwNe-54" target="eGLmCTw4VA7f1JJkIwNe-56">
          <mxGeometry relative="1" as="geometry" />
        </mxCell>
        <mxCell id="eGLmCTw4VA7f1JJkIwNe-54" value="count=0" style="whiteSpace=wrap;html=1;strokeWidth=2;" vertex="1" parent="1">
          <mxGeometry x="390" y="535" width="120" height="30" as="geometry" />
        </mxCell>
        <mxCell id="eGLmCTw4VA7f1JJkIwNe-60" value="" style="edgeStyle=orthogonalEdgeStyle;rounded=0;orthogonalLoop=1;jettySize=auto;html=1;" edge="1" parent="1" source="eGLmCTw4VA7f1JJkIwNe-56" target="eGLmCTw4VA7f1JJkIwNe-59">
          <mxGeometry relative="1" as="geometry" />
        </mxCell>
        <mxCell id="eGLmCTw4VA7f1JJkIwNe-70" style="edgeStyle=orthogonalEdgeStyle;rounded=0;orthogonalLoop=1;jettySize=auto;html=1;entryX=1;entryY=0.5;entryDx=0;entryDy=0;" edge="1" parent="1" source="eGLmCTw4VA7f1JJkIwNe-56" target="eGLmCTw4VA7f1JJkIwNe-63">
          <mxGeometry relative="1" as="geometry">
            <Array as="points">
              <mxPoint x="520" y="605" />
              <mxPoint x="520" y="715" />
            </Array>
          </mxGeometry>
        </mxCell>
        <mxCell id="eGLmCTw4VA7f1JJkIwNe-56" value="success=0" style="rhombus;whiteSpace=wrap;html=1;strokeWidth=2;" vertex="1" parent="1">
          <mxGeometry x="410" y="580" width="80" height="50" as="geometry" />
        </mxCell>
        <mxCell id="eGLmCTw4VA7f1JJkIwNe-58" value="是" style="text;html=1;align=center;verticalAlign=middle;resizable=0;points=[];autosize=1;strokeColor=none;fillColor=none;" vertex="1" parent="1">
          <mxGeometry x="440" y="620" width="40" height="30" as="geometry" />
        </mxCell>
        <mxCell id="eGLmCTw4VA7f1JJkIwNe-64" value="" style="edgeStyle=orthogonalEdgeStyle;rounded=0;orthogonalLoop=1;jettySize=auto;html=1;" edge="1" parent="1" source="eGLmCTw4VA7f1JJkIwNe-59" target="eGLmCTw4VA7f1JJkIwNe-63">
          <mxGeometry relative="1" as="geometry" />
        </mxCell>
        <mxCell id="eGLmCTw4VA7f1JJkIwNe-59" value="Time_Value减一" style="whiteSpace=wrap;html=1;strokeWidth=2;" vertex="1" parent="1">
          <mxGeometry x="397.5" y="650" width="105" height="30" as="geometry" />
        </mxCell>
        <mxCell id="eGLmCTw4VA7f1JJkIwNe-62" value="否" style="text;html=1;align=center;verticalAlign=middle;resizable=0;points=[];autosize=1;strokeColor=none;fillColor=none;" vertex="1" parent="1">
          <mxGeometry x="505" y="330" width="40" height="30" as="geometry" />
        </mxCell>
        <mxCell id="eGLmCTw4VA7f1JJkIwNe-72" value="" style="edgeStyle=orthogonalEdgeStyle;rounded=0;orthogonalLoop=1;jettySize=auto;html=1;" edge="1" parent="1" source="eGLmCTw4VA7f1JJkIwNe-63" target="eGLmCTw4VA7f1JJkIwNe-71">
          <mxGeometry relative="1" as="geometry" />
        </mxCell>
        <mxCell id="eGLmCTw4VA7f1JJkIwNe-63" value="TMR1重新赋初值" style="whiteSpace=wrap;html=1;strokeWidth=2;" vertex="1" parent="1">
          <mxGeometry x="390" y="700" width="120" height="30" as="geometry" />
        </mxCell>
        <mxCell id="eGLmCTw4VA7f1JJkIwNe-67" value="否" style="text;html=1;align=center;verticalAlign=middle;resizable=0;points=[];autosize=1;strokeColor=none;fillColor=none;" vertex="1" parent="1">
          <mxGeometry x="480" y="455" width="40" height="30" as="geometry" />
        </mxCell>
        <mxCell id="eGLmCTw4VA7f1JJkIwNe-69" value="否" style="text;html=1;align=center;verticalAlign=middle;resizable=0;points=[];autosize=1;strokeColor=none;fillColor=none;" vertex="1" parent="1">
          <mxGeometry x="480" y="580" width="40" height="30" as="geometry" />
        </mxCell>
        <mxCell id="eGLmCTw4VA7f1JJkIwNe-74" value="" style="edgeStyle=orthogonalEdgeStyle;rounded=0;orthogonalLoop=1;jettySize=auto;html=1;" edge="1" parent="1" source="eGLmCTw4VA7f1JJkIwNe-71" target="eGLmCTw4VA7f1JJkIwNe-73">
          <mxGeometry relative="1" as="geometry" />
        </mxCell>
        <mxCell id="eGLmCTw4VA7f1JJkIwNe-90" style="edgeStyle=orthogonalEdgeStyle;rounded=0;orthogonalLoop=1;jettySize=auto;html=1;entryX=1;entryY=0.5;entryDx=0;entryDy=0;" edge="1" parent="1" source="eGLmCTw4VA7f1JJkIwNe-71" target="eGLmCTw4VA7f1JJkIwNe-87">
          <mxGeometry relative="1" as="geometry">
            <Array as="points">
              <mxPoint x="550" y="785" />
              <mxPoint x="550" y="1005" />
            </Array>
          </mxGeometry>
        </mxCell>
        <mxCell id="eGLmCTw4VA7f1JJkIwNe-71" value="INT发生中断" style="rhombus;whiteSpace=wrap;html=1;strokeWidth=2;" vertex="1" parent="1">
          <mxGeometry x="410" y="760" width="80" height="50" as="geometry" />
        </mxCell>
        <mxCell id="eGLmCTw4VA7f1JJkIwNe-78" value="" style="edgeStyle=orthogonalEdgeStyle;rounded=0;orthogonalLoop=1;jettySize=auto;html=1;" edge="1" parent="1" source="eGLmCTw4VA7f1JJkIwNe-73" target="eGLmCTw4VA7f1JJkIwNe-77">
          <mxGeometry relative="1" as="geometry" />
        </mxCell>
        <mxCell id="eGLmCTw4VA7f1JJkIwNe-73" value="标志位置零" style="whiteSpace=wrap;html=1;strokeWidth=2;" vertex="1" parent="1">
          <mxGeometry x="390" y="825" width="120" height="30" as="geometry" />
        </mxCell>
        <mxCell id="eGLmCTw4VA7f1JJkIwNe-75" value="是" style="text;html=1;align=center;verticalAlign=middle;resizable=0;points=[];autosize=1;strokeColor=none;fillColor=none;" vertex="1" parent="1">
          <mxGeometry x="450" y="795" width="40" height="30" as="geometry" />
        </mxCell>
        <mxCell id="eGLmCTw4VA7f1JJkIwNe-76" value="否" style="text;html=1;align=center;verticalAlign=middle;resizable=0;points=[];autosize=1;strokeColor=none;fillColor=none;" vertex="1" parent="1">
          <mxGeometry x="510" y="765" width="40" height="30" as="geometry" />
        </mxCell>
        <mxCell id="eGLmCTw4VA7f1JJkIwNe-80" value="" style="edgeStyle=orthogonalEdgeStyle;rounded=0;orthogonalLoop=1;jettySize=auto;html=1;" edge="1" parent="1" source="eGLmCTw4VA7f1JJkIwNe-77" target="eGLmCTw4VA7f1JJkIwNe-79">
          <mxGeometry relative="1" as="geometry" />
        </mxCell>
        <mxCell id="eGLmCTw4VA7f1JJkIwNe-96" style="edgeStyle=orthogonalEdgeStyle;rounded=0;orthogonalLoop=1;jettySize=auto;html=1;entryX=1;entryY=0.5;entryDx=0;entryDy=0;" edge="1" parent="1" source="eGLmCTw4VA7f1JJkIwNe-77" target="eGLmCTw4VA7f1JJkIwNe-87">
          <mxGeometry relative="1" as="geometry">
            <Array as="points">
              <mxPoint x="530" y="897" />
              <mxPoint x="530" y="1004" />
              <mxPoint x="510" y="1004" />
            </Array>
          </mxGeometry>
        </mxCell>
        <mxCell id="eGLmCTw4VA7f1JJkIwNe-77" value="RB0为0，且拆弹未失败" style="rhombus;whiteSpace=wrap;html=1;strokeWidth=2;" vertex="1" parent="1">
          <mxGeometry x="405" y="875" width="90" height="45" as="geometry" />
        </mxCell>
        <mxCell id="eGLmCTw4VA7f1JJkIwNe-88" value="" style="edgeStyle=orthogonalEdgeStyle;rounded=0;orthogonalLoop=1;jettySize=auto;html=1;" edge="1" parent="1" source="eGLmCTw4VA7f1JJkIwNe-79" target="eGLmCTw4VA7f1JJkIwNe-87">
          <mxGeometry relative="1" as="geometry" />
        </mxCell>
        <mxCell id="eGLmCTw4VA7f1JJkIwNe-79" value="success=1，拆弹成功" style="whiteSpace=wrap;html=1;strokeWidth=2;" vertex="1" parent="1">
          <mxGeometry x="380" y="940" width="140" height="30" as="geometry" />
        </mxCell>
        <mxCell id="eGLmCTw4VA7f1JJkIwNe-81" value="是" style="text;html=1;align=center;verticalAlign=middle;resizable=0;points=[];autosize=1;strokeColor=none;fillColor=none;" vertex="1" parent="1">
          <mxGeometry x="450" y="905" width="40" height="30" as="geometry" />
        </mxCell>
        <mxCell id="eGLmCTw4VA7f1JJkIwNe-82" value="否" style="text;html=1;align=center;verticalAlign=middle;resizable=0;points=[];autosize=1;strokeColor=none;fillColor=none;" vertex="1" parent="1">
          <mxGeometry x="490" y="860" width="40" height="30" as="geometry" />
        </mxCell>
        <mxCell id="eGLmCTw4VA7f1JJkIwNe-83" value="结束中断处理" style="ellipse;whiteSpace=wrap;html=1;strokeWidth=2;" vertex="1" parent="1">
          <mxGeometry x="390" y="1030" width="120" height="40" as="geometry" />
        </mxCell>
        <mxCell id="eGLmCTw4VA7f1JJkIwNe-85" value="中断处理" style="strokeWidth=2;html=1;shape=mxgraph.flowchart.start_1;whiteSpace=wrap;" vertex="1" parent="1">
          <mxGeometry x="400" y="40" width="100" height="50" as="geometry" />
        </mxCell>
        <mxCell id="eGLmCTw4VA7f1JJkIwNe-89" value="" style="edgeStyle=orthogonalEdgeStyle;rounded=0;orthogonalLoop=1;jettySize=auto;html=1;" edge="1" parent="1" source="eGLmCTw4VA7f1JJkIwNe-87" target="eGLmCTw4VA7f1JJkIwNe-83">
          <mxGeometry relative="1" as="geometry" />
        </mxCell>
        <mxCell id="eGLmCTw4VA7f1JJkIwNe-87" value="关全局中断" style="whiteSpace=wrap;html=1;strokeWidth=2;" vertex="1" parent="1">
          <mxGeometry x="390" y="990" width="120" height="30" as="geometry" />
        </mxCell>
      </root>
    </mxGraphModel>
  </diagram>
</mxfile>
